<svg width="6" height="10" viewBox="0 0 6 10" fill="none" xmlns="http://www.w3.org/2000/svg">
<path d="M6 5.00002C6.00076 5.13163 5.97554 5.26209 5.92577 5.38393C5.87601 5.50576 5.80268 5.61658 5.71 5.71002L1.71 9.71002C1.5217 9.89832 1.2663 10.0041 1 10.0041C0.7337 10.0041 0.478306 9.89832 0.290002 9.71002C0.101698 9.52172 -0.00408939 9.26632 -0.0040894 9.00002C-0.00408941 8.73372 0.101698 8.47832 0.290002 8.29002L3.59 5.00002L0.300002 1.71002C0.136175 1.51872 0.0505688 1.27264 0.0602899 1.02097C0.0700111 0.769293 0.174344 0.530553 0.352438 0.352458C0.530533 0.174364 0.769272 0.070033 1.02095 0.0603113C1.27262 0.0505905 1.5187 0.136195 1.71 0.300021L5.71 4.30002C5.89475 4.48628 5.9989 4.73768 6 5.00002Z" fill="#424241"/>
</svg>
